<svg width="2206" height="2385" xmlns="http://www.w3.org/2000/svg" xmlns:xlink="http://www.w3.org/1999/xlink" xml:space="preserve" overflow="hidden"><g transform="translate(-826 -737)"><path d="M1995.06 3122 1995.06 3122C2376.4 3122 2727.05 2936.08 2946.84 2621.74L2946.84 2621.74C2953.73 2624.94 2961.87 2626.86 2970.01 2626.86L2970.01 2626.86C3004.45 2626.86 3032 2598.74 3032 2563.6L3032 2563.6C3032 2529.1 3004.45 2500.99 2970.01 2500.99L2970.01 2500.99C2936.2 2500.99 2908.64 2529.1 2908.64 2563.6L2908.64 2563.6C2908.64 2580.85 2914.91 2596.19 2925.55 2607.69L2925.55 2607.69C2710.77 2914.36 2367.63 3095.81 1995.06 3095.81L1995.06 3095.81C1364.51 3095.81 852.299 2572.55 852.299 1930.46L852.299 1930.46C852.299 1287.09 1364.51 763.834 1995.06 763.834L1995.06 763.834C2359.49 763.834 2700.76 940.808 2916.16 1239.17L2916.16 1239.17C2911.15 1248.12 2908.64 1258.34 2908.64 1269.2L2908.64 1269.2C2908.64 1303.7 2936.2 1332.45 2970.01 1332.45L2970.01 1332.45C3004.45 1332.45 3032 1303.7 3032 1269.2L3032 1269.2C3032 1234.06 3004.45 1206.59 2970.01 1206.59L2970.01 1206.59C2956.23 1206.59 2943.08 1211.06 2933.06 1218.73L2933.06 1218.73C2712.65 917.169 2365.75 737.639 1995.06 737.639L1995.06 737.639C1350.73 737.639 826.626 1273.03 826.626 1930.46L826.626 1930.46C826.626 2587.24 1350.73 3122 1995.06 3122" fill="#0067B4" fill-rule="evenodd"/><path d="M2442.97 1920.16 2442.97 1825 2442.97 1825 1383.18 1825 1383.13 1825 1383.13 1920.16 1383.18 1920.16 1485.89 1920.16 1382 2537 1416.61 2537 1520.7 1920.16 2305.45 1920.16 2409.53 2537 2444 2537 2340.21 1920.16 2442.97 1920.16C2442.97 1920.16 2442.97 1920.16 2442.97 1920.16Z" fill="#D9D9D9" fill-rule="evenodd"/><path d="M1853.33 1511.22C1850 1511.22 1846.86 1510.32 1843.85 1509.02L1843.85 1757.98C1843.85 1774.52 1834.13 1787.91 1821.94 1788.62L1681 1788.62 1681 1825 1837.49 1825C1855.99 1825 1871 1804.85 1871 1779.99L1871 1504C1865.95 1508.55 1859.87 1511.22 1853.33 1511.22Z" fill="#A6A6A6" fill-rule="evenodd"/><path d="M1857.48 1428 1841 1509.3C1844.43 1510.95 1848.08 1512 1851.95 1512 1869.65 1512 1884 1493.03 1884 1469.63 1884 1448.75 1872.53 1431.48 1857.48 1428Z" fill="#D0DCF0" fill-rule="evenodd"/><path d="M1862.9 1172C1802.53 1475.89 1777.85 1600.17 1758 1700.09 1782.02 1708.77 1805.15 1697.41 1809.66 1674.72L1898.24 1228.78C1902.74 1206.09 1886.92 1180.67 1862.9 1172Z" fill="#7F7F7F" fill-rule="evenodd"/><path d="M1972.67 1511.22C1976 1511.22 1979.14 1510.32 1982.15 1509.02L1982.15 1757.98C1982.15 1774.52 1991.87 1787.91 2004.06 1788.62L2145 1788.62 2145 1825 1988.51 1825C1970.01 1825 1955 1804.85 1955 1779.99L1955 1504C1960.05 1508.55 1966.13 1511.22 1972.67 1511.22Z" fill="#A6A6A6" fill-rule="evenodd"/><path d="M1968.52 1428 1985 1509.3C1981.57 1510.95 1977.92 1512 1974.05 1512 1956.35 1512 1942 1493.03 1942 1469.63 1942 1448.75 1953.47 1431.48 1968.52 1428Z" fill="#D0DCF0" fill-rule="evenodd"/><path d="M1963.1 1172C2023.47 1475.89 2048.15 1600.17 2068 1700.09 2043.98 1708.77 2020.85 1697.41 2016.34 1674.72L1927.76 1228.78C1923.26 1206.09 1939.08 1180.67 1963.1 1172Z" fill="#7F7F7F" fill-rule="evenodd"/><path d="M1570.56 2429 1508.04 2429C1484.05 2429 1474 2455.26 1474 2487.67 1474 2496.62 1474 2507.25 1474 2517L1614 2517 1614 2487.67C1614 2455.26 1594.55 2429 1570.56 2429Z" fill="#0067B4" fill-rule="evenodd"/><path d="M1474 2537 1474 2508 1614 2508 1614 2537C1614 2537 1474 2537 1474 2537Z" fill="#7F7F7F" fill-rule="evenodd"/><path d="M1559.97 1977.94C1559.75 1977.63 1558.81 1976.36 1558.57 1976.05 1549.64 1964.43 1537.58 1957.24 1524.26 1957.24 1524.12 1957.24 1329.84 1957.24 1329.84 1957.24L1149 1957 1149 1969.38C1149 2036.34 1189.49 2090.62 1239.43 2090.62 1240.34 2090.62 1474.54 2090.62 1474.54 2090.62L1474.54 2398.62C1474.54 2436.13 1496.79 2431.84 1524.26 2431.84 1551.73 2431.84 1574 2436.13 1574 2398.62L1574 2025.14C1574 2024.94 1574 2024.14 1574 2023.94 1574 2006.09 1568.65 1989.9 1559.97 1977.94Z" fill="#5780CA" fill-rule="evenodd"/><path d="M1186 1487C1200.34 1474.03 1217.61 1466.44 1236.2 1466.44 1243.98 1466.44 1251.46 1467.91 1258.64 1470.41L1258.64 1463.61C1262.31 1463.02 1265.99 1462.19 1269.65 1460.88 1318.69 1443.32 1346.05 1366.06 1330.76 1288.33 1329.01 1279.48 1326.73 1271.07 1324.11 1263.02 1298.58 1263.02 1285.95 1263 1264.26 1263 1236.5 1263 1222.32 1285.81 1222.32 1315.48 1222.32 1315.48 1205.84 1311.7 1195.3 1325.93 1184.76 1340.15 1186.04 1356 1186.04 1356L1186.07 1436.06C1186.07 1436.06 1186.01 1435.98 1186 1435.96 1186 1453.17 1186 1473.38 1186 1487Z" fill="#F2F2F2" fill-rule="evenodd"/><path d="M1555 1825C1555 1825 1555 1824.09 1555 1802.9L1555 1802.9C1555 1773.68 1563.55 1750 1583.95 1750L1596.06 1750C1616.46 1750 1633 1773.68 1633 1802.9L1633 1825C1633 1825 1555 1825 1555 1825Z" fill="#F2F2F2" fill-rule="evenodd"/><path d="M1149 1956.62 1149 1586.28C1149 1519.29 1189.48 1465 1239.41 1465 1265.49 1465 1288.93 1479.89 1305.43 1503.58 1309.33 1505.46 1336.42 1562.52 1362.52 1619.1 1388.62 1675.7 1413.76 1731.83 1413.76 1731.83L1545.9 1731.83C1565.88 1731.83 1566 1753.53 1566 1780.34 1566 1807.12 1565.88 1828.84 1545.9 1828.84L1393.12 1828.84C1392.73 1828.84 1381.86 1829.94 1374.35 1824.39 1366.65 1818.71 1362.31 1806.36 1361.48 1804.42L1329.84 1730.89 1329.84 1959 1149 1956.62Z" fill="#0067B4" fill-rule="evenodd"/><path d="M1186.14 1364.77C1186.14 1364.77 1184.85 1348.89 1195.42 1334.63 1205.99 1320.38 1222.51 1324.18 1222.51 1324.18 1222.7 1294.53 1236.85 1271.84 1264.58 1271.58 1286.83 1271.36 1299.83 1271.35 1326 1271.57 1305.04 1208.36 1258.41 1171.67 1214.42 1187.8 1165.33 1205.78 1138.08 1282.93 1153.14 1360.71 1164.28 1418.22 1186.13 1444.95 1186.17 1445L1186.14 1364.77Z" fill="#7F7F7F" fill-rule="evenodd"/><path d="M1221.91 2476.52 1112 2512.71 1112 2537 1372 2537 1372 2512.71 1262.64 2476.72 1258.17 2183 1226.38 2183C1226.38 2183 1221.91 2476.52 1221.91 2476.52Z" fill="#A6A6A6" fill-rule="evenodd"/><path d="M1113.83 2089.2 1129 2089.2 1129 1898C1125.33 1899.41 1121.48 1900.21 1117.49 1900.18 1113.14 1900.15 1108.94 1900.24 1105 1900.21L1105 2091C1107.84 2089.87 1110.78 2089.2 1113.83 2089.2Z" fill="#A6A6A6" fill-rule="evenodd"/><path d="M1406.87 2145.21C1405.6 2111.06 1388.57 2084 1367.7 2084L1107.3 2084C1086.43 2084 1069.4 2111.06 1068.13 2145.21L1068 2186 1407 2186C1407 2186 1406.87 2145.21 1406.87 2145.21Z" fill="#7F7F7F" fill-rule="evenodd"/><path d="M1154.45 1847.1C1154.33 1879.21 1134.89 1905.12 1111.02 1904.96L1111.02 1904.96C1087.15 1904.82 1067.89 1908.13 1068 1876.01L1068.55 1660.6C1068.67 1628.48 1088.11 1632.03 1111.98 1632.19L1111.98 1632.19C1135.85 1632.35 1155.11 1658.49 1155 1690.61 1155 1690.61 1154.45 1847.1 1154.45 1847.1Z" fill="#7F7F7F" fill-rule="evenodd"/><path d="M2254.44 2429 2316.96 2429C2340.95 2429 2351 2455.26 2351 2487.67 2351 2496.62 2351 2507.25 2351 2517L2211 2517 2211 2487.67C2211 2455.26 2230.44 2429 2254.44 2429Z" fill="#0067B4" fill-rule="evenodd"/><path d="M2351 2537 2351 2508 2211 2508 2211 2537C2211 2537 2351 2537 2351 2537Z" fill="#7F7F7F" fill-rule="evenodd"/><path d="M2265.03 1977.94C2265.25 1977.63 2266.19 1976.36 2266.43 1976.05 2275.36 1964.43 2287.42 1957.24 2300.74 1957.24 2300.88 1957.24 2495.16 1957.24 2495.16 1957.24L2676 1957 2676 1969.38C2676 2036.34 2635.51 2090.62 2585.57 2090.62 2584.66 2090.62 2350.46 2090.62 2350.46 2090.62L2350.46 2398.62C2350.46 2436.13 2328.21 2431.84 2300.74 2431.84 2273.27 2431.84 2251 2436.13 2251 2398.62L2251 2025.14C2251 2024.94 2251 2024.14 2251 2023.94 2251 2006.09 2256.35 1989.9 2265.03 1977.94Z" fill="#5780CA" fill-rule="evenodd"/><path d="M2634 1487C2619.66 1474.03 2602.38 1466.44 2583.8 1466.44 2576.03 1466.44 2568.54 1467.91 2561.36 1470.41L2561.36 1463.61C2557.69 1463.02 2554.01 1462.19 2550.36 1460.88 2501.31 1443.32 2473.95 1366.06 2489.25 1288.33 2490.99 1279.48 2493.27 1271.07 2495.9 1263.02 2521.42 1263.02 2534.04 1263 2555.74 1263 2583.5 1263 2597.68 1285.81 2597.68 1315.48 2597.68 1315.48 2614.16 1311.7 2624.7 1325.93 2635.24 1340.15 2633.96 1356 2633.96 1356L2633.93 1436.06C2633.93 1436.06 2633.99 1435.98 2634 1435.96 2634 1453.17 2634 1473.38 2634 1487Z" fill="#F2F2F2" fill-rule="evenodd"/><path d="M2266 1825C2266 1825 2266 1824.09 2266 1802.9L2266 1802.9C2266 1773.68 2257.45 1750 2237.05 1750L2224.94 1750C2204.54 1750 2188 1773.68 2188 1802.9L2188 1825C2188 1825 2266 1825 2266 1825Z" fill="#F2F2F2" fill-rule="evenodd"/><path d="M2676 1957.75 2675.15 1586.26C2675.15 1519.28 2634.65 1465 2584.7 1465 2558.61 1465 2535.18 1479.88 2518.67 1503.57 2514.76 1505.44 2487.67 1562.48 2461.54 1619.09 2435.44 1675.67 2410.3 1731.77 2410.3 1731.77L2278.11 1731.77C2258.12 1731.77 2258 1753.5 2258 1780.27 2258 1807.06 2258.12 1828.79 2278.11 1828.79L2430.93 1828.79C2431.32 1828.79 2442.19 1829.89 2449.72 1824.32 2457.4 1818.66 2461.76 1806.31 2462.59 1804.35L2494.25 1730.85 2495.12 1958 2676 1957.75Z" fill="#0067B4" fill-rule="evenodd"/><path d="M2630.48 1364.37C2630.48 1364.37 2631.77 1348.49 2621.17 1334.23 2610.58 1319.99 2594.01 1323.78 2594.01 1323.78 2593.98 1294.07 2579.74 1271.3 2551.84 1271.19 2530.58 1271.1 2517.96 1270.92 2493 1270.4 2513.48 1208.58 2558.91 1172.31 2602.12 1187.41 2651.67 1204.72 2679.34 1282.4 2663.57 1360.31 2662.01 1390.48 2665.33 1427.31 2657.39 1438.81 2649.46 1450.29 2630.45 1444.58 2630.45 1444.58L2630.48 1364.37Z" fill="#7F7F7F" fill-rule="evenodd"/><path d="M2599.09 2476.52 2709 2512.71 2709 2537 2449 2537 2449 2512.71 2558.36 2476.72 2562.83 2183 2594.62 2183C2594.62 2183 2599.09 2476.52 2599.09 2476.52Z" fill="#A6A6A6" fill-rule="evenodd"/><path d="M2712.8 2089.2 2697 2089.2 2697 1898C2700.82 1899.41 2704.83 1900.21 2708.99 1900.18 2713.52 1900.15 2717.89 1900.24 2722 1900.21L2722 2091C2719.04 2089.87 2715.97 2089.2 2712.8 2089.2Z" fill="#A6A6A6" fill-rule="evenodd"/><path d="M2412.13 2145.21C2413.4 2111.06 2430.43 2084 2451.3 2084L2711.7 2084C2732.57 2084 2749.6 2111.06 2750.87 2145.21L2751 2186 2412 2186C2412 2186 2412.13 2145.21 2412.13 2145.21Z" fill="#7F7F7F" fill-rule="evenodd"/><path d="M2664.55 1847.1C2664.67 1879.21 2684.11 1905.12 2707.98 1904.96L2707.98 1904.96C2731.86 1904.82 2751.11 1908.13 2751 1876.01L2750.45 1660.6C2750.34 1628.48 2730.9 1632.03 2707.02 1632.19L2707.02 1632.19C2683.15 1632.35 2663.9 1658.49 2664 1690.61 2664 1690.61 2664.55 1847.1 2664.55 1847.1Z" fill="#7F7F7F" fill-rule="evenodd"/></g></svg>